<mxfile host="app.diagrams.net" agent="Mozilla/5.0 (Macintosh; Intel Mac OS X 10_15_7) AppleWebKit/605.1.15 (KHTML, like Gecko) Version/18.2 Safari/605.1.15" version="26.0.6">
  <diagram name="Page-1" id="pClWBnW519ibc09DGgyK">
    <mxGraphModel dx="1334" dy="590" grid="0" gridSize="10" guides="1" tooltips="1" connect="1" arrows="1" fold="1" page="0" pageScale="1" pageWidth="827" pageHeight="1169" math="0" shadow="0">
      <root>
        <mxCell id="0" />
        <mxCell id="1" parent="0" />
        <mxCell id="NVhNQNz_ob-hAvpK4Syj-1" value="" style="image;html=1;image=img/lib/atlassian/Bitbucket_Logo.svg;" vertex="1" parent="1">
          <mxGeometry x="-66" y="87" width="66" height="50" as="geometry" />
        </mxCell>
        <mxCell id="NVhNQNz_ob-hAvpK4Syj-4" value="Postgress" style="shape=cylinder3;whiteSpace=wrap;html=1;boundedLbl=1;backgroundOutline=1;size=15;" vertex="1" parent="1">
          <mxGeometry x="396" y="57" width="117" height="92" as="geometry" />
        </mxCell>
      </root>
    </mxGraphModel>
  </diagram>
</mxfile>
